<svg width="21" height="20" viewBox="0 0 21 20" fill="none" xmlns="http://www.w3.org/2000/svg">
<g clip-path="url(#clip0_22_593)">
<path d="M1.83788 7.11636V15.8719C1.83788 17.5289 3.1968 18.869 4.87693 18.869H16.7857C18.4659 18.869 19.8248 17.5289 19.8248 15.8719V7.147C17.2545 7.80965 14.1854 8.19461 10.8902 8.19461C7.54353 8.19461 4.43156 7.79773 1.83788 7.11636ZM0.693421 3.44971C0.691603 3.49638 0.690687 3.54308 0.690674 3.58978L0.690674 16.4105C0.690674 18.3891 2.3243 20.0002 4.33112 20.0002H17.3316C19.3384 20.0002 20.9719 18.3891 20.9719 16.4105V3.58978C20.9719 3.56565 20.9716 3.54137 20.9711 3.51733V6.82291C20.8183 6.87009 20.6633 6.91634 20.5062 6.96146V16.116C20.5062 18.0042 18.9477 19.5411 17.033 19.5411H4.6295C2.71488 19.5411 1.15627 18.0042 1.15627 16.116V6.92733C0.999139 6.88133 0.844107 6.83424 0.691373 6.78617V3.56964C0.691423 3.52955 0.692072 3.4895 0.693421 3.44971Z" fill="#0C96E2"/>
<path d="M1.83786 4.12396C1.83786 2.47137 3.19678 1.12715 4.87691 1.12715H16.7857C18.4659 1.12715 19.8248 2.47137 19.8248 4.12396V15.8719C19.8248 17.5289 18.4659 18.869 16.7857 18.869H4.87686C3.19673 18.869 1.83781 17.5289 1.83781 15.8719L1.83786 4.12396ZM1.15625 3.8842V16.116C1.15625 18.0042 2.71486 19.5411 4.62948 19.5411H17.0331C18.9477 19.5411 20.5062 18.0042 20.5062 16.116V3.8842C20.5062 1.99622 18.9477 0.459229 17.0331 0.459229H4.62948C2.71486 0.459229 1.15625 1.99622 1.15625 3.8842Z" fill="#0C96E2"/>
<path d="M17.4979 0H4.12603C4.03613 0 3.94733 0.00448204 3.85907 0.0111312C2.11417 0.235529 0.752495 1.68293 0.693359 3.4496C0.768228 1.53547 2.37179 0 4.33101 0H17.3315C19.3138 0 20.9319 1.57177 20.9711 3.51722V3.51028C20.9418 1.74726 19.6169 0.288279 17.8961 0.023149C17.7653 0.00837304 17.6326 0 17.4979 0" fill="#0C96E2"/>
<path d="M16.7859 1.12701H4.8771C3.19698 1.12701 1.83806 2.47123 1.83806 4.12382V7.1162C4.43174 7.79757 7.54366 8.19445 10.8903 8.19445C14.1854 8.19445 17.2546 7.80949 19.8249 7.14684V4.12387C19.8249 2.47128 18.466 1.12701 16.7859 1.12701ZM17.3318 0H4.3313C2.37208 0 0.768517 1.53547 0.693648 3.4496C0.69235 3.48939 0.69165 3.52943 0.69165 3.56953V6.78601C0.846112 6.83466 1.00109 6.88171 1.15655 6.92717V3.88411C1.15655 1.99613 2.71515 0.459138 4.62977 0.459138H17.0334C18.948 0.459138 20.5065 1.99613 20.5065 3.88411V6.96135C20.662 6.91672 20.817 6.87053 20.9715 6.8228V3.51722C20.9322 1.57177 19.3141 0 17.3318 0Z" fill="#0C96E2"/>
<path d="M17.0331 0.459229H4.62948C2.71486 0.459229 1.15625 1.99622 1.15625 3.8842V6.92726C1.38253 6.99342 1.60973 7.05644 1.83781 7.11629V4.12396C1.83781 2.47137 3.19673 1.12715 4.87686 1.12715H16.7856C18.4658 1.12715 19.8247 2.47137 19.8247 4.12396V7.14702C20.0528 7.0883 20.28 7.02645 20.5063 6.96149V3.8842C20.5062 1.99622 18.9477 0.459229 17.0331 0.459229Z" fill="#0C96E2"/>
<path d="M12.8518 5H11.1298C10.1079 5 8.97126 5.43878 8.97126 6.95102C8.97625 7.47795 8.97126 7.98259 8.97126 8.55052H7.78906V10.4711H9.00785V16H11.2474V10.4346H12.7256L12.8594 8.54514H11.2088C11.2088 8.54514 11.2125 7.70463 11.2088 7.46054C11.2088 6.86293 11.8179 6.89716 11.8546 6.89716C12.1444 6.89716 12.708 6.89802 12.8527 6.89716V5H12.8518Z" fill="white"/>
</g>
<defs>
<clipPath id="clip0_22_593">
<rect x="0.690674" width="20.2812" height="20" rx="5" fill="white"/>
</clipPath>
</defs>
</svg>
