<svg width="21" height="20" viewBox="0 0 21 20" fill="none" xmlns="http://www.w3.org/2000/svg">
<g clip-path="url(#clip0_22_585)">
<path d="M5.83346 19.9293C4.62733 19.8752 3.97212 19.6772 3.53633 19.5096C2.95888 19.2879 2.54719 19.024 2.1138 18.5972C1.68041 18.1704 1.41218 17.7644 1.18856 17.195C1.01858 16.7652 0.817857 16.1191 0.763006 14.9297C0.702729 13.644 0.690674 13.2582 0.690674 10.0009C0.690674 6.74354 0.703935 6.35837 0.762403 5.07148C0.817254 3.88207 1.01918 3.23714 1.18795 2.80619C1.41279 2.23675 1.68102 1.83077 2.1132 1.4028C2.54598 0.976016 2.95767 0.71091 3.53572 0.490385C3.97152 0.322763 4.62673 0.124825 5.83286 0.0707344C7.13724 0.0118881 7.52904 0 10.831 0C14.1341 0 14.5247 0.0130769 15.8297 0.0707344C17.0358 0.124825 17.6898 0.323952 18.1268 0.490385C18.7043 0.71091 19.116 0.976016 19.5494 1.4028C19.9828 1.82958 20.2498 2.23616 20.4746 2.8056C20.6446 3.23536 20.8453 3.88147 20.9002 5.07088C20.9598 6.35777 20.9719 6.74295 20.9719 10.0003C20.9719 13.2565 20.9598 13.6428 20.9002 14.9297C20.8453 16.1191 20.6434 16.7652 20.4746 17.195C20.2498 17.7644 19.9822 18.1704 19.5494 18.5972C19.1166 19.024 18.7043 19.2879 18.1268 19.5096C17.691 19.6772 17.0358 19.8752 15.8297 19.9293C14.5259 19.9881 14.1341 20 10.831 20C7.52904 20 7.13724 19.9887 5.83346 19.9293Z" fill="#0C96E2"/>
<path d="M5.83346 19.9293C4.62733 19.8752 3.97212 19.6772 3.53633 19.5096C2.95888 19.2879 2.54719 19.024 2.1138 18.5972C1.68041 18.1704 1.41218 17.7644 1.18856 17.195C1.01858 16.7652 0.817857 16.1191 0.763006 14.9297C0.702729 13.644 0.690674 13.2582 0.690674 10.0009C0.690674 6.74354 0.703935 6.35837 0.762403 5.07148C0.817254 3.88207 1.01918 3.23714 1.18795 2.80619C1.41279 2.23675 1.68102 1.83077 2.1132 1.4028C2.54598 0.976016 2.95767 0.71091 3.53572 0.490385C3.97152 0.322763 4.62673 0.124825 5.83286 0.0707344C7.13724 0.0118881 7.52904 0 10.831 0C14.1341 0 14.5247 0.0130769 15.8297 0.0707344C17.0358 0.124825 17.6898 0.323952 18.1268 0.490385C18.7043 0.71091 19.116 0.976016 19.5494 1.4028C19.9828 1.82958 20.2498 2.23616 20.4746 2.8056C20.6446 3.23536 20.8453 3.88147 20.9002 5.07088C20.9598 6.35777 20.9719 6.74295 20.9719 10.0003C20.9719 13.2565 20.9598 13.6428 20.9002 14.9297C20.8453 16.1191 20.6434 16.7652 20.4746 17.195C20.2498 17.7644 19.9822 18.1704 19.5494 18.5972C19.1166 19.024 18.7043 19.2879 18.1268 19.5096C17.691 19.6772 17.0358 19.8752 15.8297 19.9293C14.5259 19.9881 14.1341 20 10.831 20C7.52904 20 7.13724 19.9887 5.83346 19.9293Z" fill="#0C96E2"/>
<path d="M8.80356 10C8.80356 8.89547 9.71133 7.99984 10.8314 7.99984C11.9515 7.99984 12.8598 8.89547 12.8598 10C12.8598 11.1045 11.9515 12.0002 10.8314 12.0002C9.71133 12.0002 8.80356 11.1045 8.80356 10ZM7.70706 10C7.70706 11.7016 9.10584 13.0809 10.8314 13.0809C12.557 13.0809 13.9558 11.7016 13.9558 10C13.9558 8.2984 12.557 6.91907 10.8314 6.91907C9.10584 6.91907 7.70711 8.2983 7.70711 10M13.3494 6.79691C13.3493 6.93932 13.3921 7.07854 13.4723 7.19697C13.5525 7.31541 13.6665 7.40774 13.7999 7.46228C13.9333 7.51683 14.0801 7.53115 14.2217 7.50342C14.3634 7.4757 14.4935 7.40717 14.5956 7.30652C14.6978 7.20587 14.7674 7.0776 14.7956 6.93795C14.8238 6.79829 14.8094 6.65352 14.7542 6.52193C14.699 6.39035 14.6055 6.27786 14.4854 6.1987C14.3654 6.11954 14.2242 6.07726 14.0798 6.0772H14.0795C13.886 6.07729 13.7004 6.15314 13.5635 6.28808C13.4266 6.42302 13.3496 6.60603 13.3494 6.79691ZM8.37325 14.8839C7.78003 14.8573 7.45759 14.7598 7.24332 14.6775C6.95924 14.5684 6.75655 14.4386 6.54344 14.2287C6.33033 14.0188 6.19842 13.8192 6.08831 13.539C6.00478 13.3278 5.90597 13.0098 5.879 12.4248C5.8495 11.7924 5.84361 11.6024 5.84361 10.0001C5.84361 8.39781 5.84999 8.20835 5.879 7.57538C5.90602 6.9904 6.00556 6.67298 6.08831 6.46115C6.19891 6.18102 6.33063 5.98115 6.54344 5.77101C6.75626 5.56086 6.95875 5.43078 7.24332 5.32221C7.4575 5.23984 7.78003 5.1424 8.37325 5.11581C9.01462 5.08672 9.20728 5.08091 10.8314 5.08091C12.4556 5.08091 12.6484 5.0871 13.2903 5.1159C13.8836 5.14254 14.2055 5.2407 14.4203 5.3223C14.7044 5.43088 14.9071 5.56125 15.1202 5.7711C15.3333 5.98096 15.4647 6.18112 15.5753 6.46125C15.6588 6.67245 15.7576 6.9905 15.7846 7.57547C15.8141 8.20845 15.82 8.3979 15.82 10.0002C15.82 11.6025 15.8141 11.7919 15.7846 12.4249C15.7576 13.0099 15.6583 13.3278 15.5753 13.5391C15.4647 13.8193 15.333 14.0191 15.1202 14.2288C14.9073 14.4385 14.7044 14.5685 14.4203 14.6776C14.2061 14.76 13.8836 14.8574 13.2903 14.884C12.649 14.9131 12.4563 14.9189 10.8314 14.9189C9.20655 14.9189 9.01443 14.9131 8.37325 14.884M8.32287 4.03634C7.67513 4.06542 7.23251 4.1667 6.84597 4.31502C6.44589 4.46819 6.10676 4.67368 5.76812 5.00709C5.42947 5.3405 5.22162 5.67496 5.06629 6.06995C4.91588 6.45136 4.81317 6.88758 4.78367 7.52632C4.75369 8.16606 4.74683 8.37059 4.74683 10C4.74683 11.6294 4.75369 11.8339 4.78367 12.4737C4.81317 13.1125 4.91588 13.5486 5.06629 13.93C5.22162 14.3246 5.42952 14.6596 5.76812 14.9929C6.10671 15.3262 6.44541 15.5314 6.84597 15.685C7.23324 15.8333 7.67513 15.9346 8.32287 15.9637C8.97198 15.9928 9.17905 16 10.8314 16C12.4838 16 12.6912 15.9932 13.34 15.9637C13.9878 15.9346 14.4301 15.8333 14.8169 15.685C15.217 15.5314 15.5561 15.3263 15.8948 14.9929C16.2334 14.6595 16.4408 14.3246 16.5966 13.93C16.747 13.5486 16.8502 13.1124 16.8792 12.4737C16.9087 11.8335 16.9156 11.6294 16.9156 10C16.9156 8.37059 16.9087 8.16606 16.8792 7.52632C16.8497 6.88754 16.747 6.45112 16.5966 6.06995C16.4408 5.67544 16.2329 5.34102 15.8948 5.00709C15.5566 4.67315 15.217 4.46819 14.8174 4.31502C14.4301 4.1667 13.9877 4.06494 13.3405 4.03634C12.6916 4.0071 12.4843 4 10.8322 4C9.18002 4 8.97222 4.00677 8.32312 4.03634" fill="white"/>
<path d="M8.80356 10C8.80356 8.89547 9.71133 7.99984 10.8314 7.99984C11.9515 7.99984 12.8598 8.89547 12.8598 10C12.8598 11.1045 11.9515 12.0002 10.8314 12.0002C9.71133 12.0002 8.80356 11.1045 8.80356 10M7.70706 10C7.70706 11.7016 9.10584 13.0809 10.8314 13.0809C12.557 13.0809 13.9558 11.7016 13.9558 10C13.9558 8.2984 12.557 6.91907 10.8314 6.91907C9.10584 6.91907 7.70711 8.2983 7.70711 10M13.3494 6.79691C13.3493 6.93931 13.3921 7.07854 13.4723 7.19697C13.5525 7.31541 13.6665 7.40774 13.7999 7.46228C13.9333 7.51683 14.0801 7.53115 14.2217 7.50342C14.3634 7.4757 14.4935 7.40717 14.5956 7.30652C14.6978 7.20587 14.7674 7.0776 14.7956 6.93795C14.8238 6.79829 14.8094 6.65352 14.7542 6.52193C14.699 6.39035 14.6055 6.27786 14.4854 6.1987C14.3654 6.11954 14.2243 6.07726 14.0798 6.0772H14.0795C13.886 6.07729 13.7004 6.15314 13.5635 6.28808C13.4266 6.42302 13.3496 6.60603 13.3494 6.79691M8.37325 14.8839C7.78003 14.8573 7.45759 14.7598 7.24332 14.6775C6.95924 14.5684 6.75655 14.4386 6.54344 14.2287C6.33033 14.0188 6.19842 13.8192 6.08831 13.539C6.00478 13.3278 5.90597 13.0098 5.879 12.4248C5.8495 11.7924 5.84361 11.6024 5.84361 10.0001C5.84361 8.39781 5.84999 8.20835 5.879 7.57538C5.90602 6.9904 6.00556 6.67298 6.08831 6.46115C6.19891 6.18102 6.33063 5.98115 6.54344 5.77101C6.75626 5.56086 6.95875 5.43078 7.24332 5.32221C7.4575 5.23984 7.78003 5.1424 8.37325 5.11581C9.01462 5.08672 9.20728 5.08091 10.8314 5.08091C12.4556 5.08091 12.6484 5.0871 13.2903 5.1159C13.8836 5.14254 14.2055 5.2407 14.4203 5.3223C14.7044 5.43088 14.9071 5.56125 15.1202 5.7711C15.3333 5.98096 15.4647 6.18112 15.5753 6.46125C15.6588 6.67245 15.7576 6.9905 15.7846 7.57547C15.8141 8.20845 15.82 8.3979 15.82 10.0002C15.82 11.6025 15.8141 11.7919 15.7846 12.4249C15.7576 13.0099 15.6583 13.3278 15.5753 13.5391C15.4647 13.8193 15.333 14.0191 15.1202 14.2288C14.9073 14.4385 14.7044 14.5685 14.4203 14.6776C14.2061 14.76 13.8836 14.8574 13.2903 14.884C12.649 14.9131 12.4563 14.9189 10.8314 14.9189C9.20655 14.9189 9.01443 14.9131 8.37325 14.884M8.32287 4.03634C7.67513 4.06542 7.23251 4.1667 6.84597 4.31502C6.44589 4.46819 6.10676 4.67368 5.76812 5.00709C5.42947 5.3405 5.22162 5.67496 5.06629 6.06995C4.91588 6.45136 4.81317 6.88758 4.78367 7.52632C4.75369 8.16606 4.74683 8.37059 4.74683 10C4.74683 11.6294 4.75369 11.8339 4.78367 12.4737C4.81317 13.1125 4.91588 13.5486 5.06629 13.93C5.22162 14.3246 5.42952 14.6596 5.76812 14.9929C6.10671 15.3262 6.44541 15.5314 6.84597 15.685C7.23324 15.8333 7.67513 15.9346 8.32287 15.9637C8.97198 15.9928 9.17905 16 10.8314 16C12.4838 16 12.6912 15.9932 13.34 15.9637C13.9878 15.9346 14.4301 15.8333 14.8169 15.685C15.217 15.5314 15.5561 15.3263 15.8948 14.9929C16.2334 14.6595 16.4408 14.3246 16.5966 13.93C16.747 13.5486 16.8502 13.1124 16.8792 12.4737C16.9087 11.8335 16.9156 11.6294 16.9156 10C16.9156 8.37059 16.9087 8.16606 16.8792 7.52632C16.8497 6.88754 16.747 6.45112 16.5966 6.06995C16.4408 5.67544 16.2329 5.34102 15.8948 5.00709C15.5566 4.67315 15.217 4.46819 14.8174 4.31502C14.4301 4.1667 13.9877 4.06494 13.3405 4.03634C12.6916 4.0071 12.4843 4 10.8322 4C9.18002 4 8.97222 4.00677 8.32312 4.03634" stroke="white" stroke-width="0.2"/>
</g>
<defs>
<clipPath id="clip0_22_585">
<rect width="20.2812" height="20" fill="white" transform="translate(0.690674)"/>
</clipPath>
</defs>
</svg>
