<svg width="21" height="20" viewBox="0 0 21 20" fill="none" xmlns="http://www.w3.org/2000/svg">
<g clip-path="url(#clip0_22_589)">
<path d="M0.690674 1.46696C0.690674 0.679347 1.36201 0.0400391 2.18958 0.0400391H19.473C20.3009 0.0400391 20.9719 0.679347 20.9719 1.46696V18.5333C20.9719 19.3212 20.3009 19.96 19.473 19.96H2.18958C1.36209 19.96 0.690674 19.3213 0.690674 18.5336V1.46673V1.46696Z" fill="#0C96E2"/>
<path d="M8.06294 14.9998V8.25254H5.88912V14.9998H8.06317H8.06294ZM6.97648 7.33148C7.73438 7.33148 8.20623 6.81338 8.20623 6.16589C8.19204 5.50365 7.73438 5 6.9909 5C6.2469 5 5.76099 5.50365 5.76099 6.16583C5.76099 6.81332 6.23266 7.33142 6.96224 7.33142H6.97631L6.97648 7.33148ZM9.26618 14.9998H11.4398V11.2322C11.4398 11.0308 11.454 10.8289 11.5114 10.6851C11.6685 10.282 12.0262 9.86477 12.6268 9.86477C13.4132 9.86477 13.728 10.4834 13.728 11.3906V14.9998H15.9016V11.1311C15.9016 9.05874 14.8293 8.09436 13.3992 8.09436C12.2266 8.09436 11.7116 8.77048 11.4255 9.23098H11.44V8.25278H9.2663C9.29467 8.88575 9.26613 15 9.26613 15L9.26618 14.9998Z" fill="white"/>
</g>
<defs>
<clipPath id="clip0_22_589">
<rect x="0.690674" width="20.2812" height="20" rx="5" fill="white"/>
</clipPath>
</defs>
</svg>
